<?xml version="1.0" encoding="utf-8"?>
<!-- Generator: Adobe Illustrator 23.0.1, SVG Export Plug-In . SVG Version: 6.00 Build 0)  -->
<svg version="1.1" id="Layer_1" xmlns="http://www.w3.org/2000/svg" xmlns:xlink="http://www.w3.org/1999/xlink" x="0px" y="0px"
	 viewBox="0 0 504 284" style="enable-background:new 0 0 504 284;" xml:space="preserve">
<style type="text/css">
	.st0{fill:#5B76EF;}
	.st1{fill:#FFD054;}
	.st2{fill:#6AE0F6;}
	.st3{fill:#FFFFFF;}
	.st4{fill:#FF867E;}
	.st5{fill:url(#SVGID_1_);}
	.st6{fill:url(#SVGID_2_);}
	.st7{fill:none;stroke:#FFD054;stroke-width:2;stroke-linecap:round;stroke-linejoin:round;stroke-miterlimit:10;}
	.st8{fill:#DEC3F7;}
	.st9{fill:#E6D1F9;}
	.st10{opacity:0.3;fill:#FFFFFF;}
	.st11{fill:#97ABFF;}
	.st12{fill:#8CA0FF;}
	.st13{fill:url(#SVGID_3_);}
	.st14{fill:url(#SVGID_4_);}
	.st15{fill:#E3E9FF;}
	.st16{fill:#69ACFF;}
	.st17{fill:#F1E6F7;}
	.st18{fill:#4BB6F6;}
	.st19{fill:#BAB7F6;}
	.st20{fill:#A39EE9;}
	.st21{fill:#FF647E;}
	.st22{fill:#293267;}
	.st23{clip-path:url(#SVGID_6_);}
	.st24{fill:#271055;}
	.st25{fill:#FFA9A7;}
	.st26{fill:url(#SVGID_7_);}
	.st27{fill:#F3F0F3;}
	.st28{fill:none;stroke:#C34159;stroke-width:0.5;stroke-linecap:round;stroke-linejoin:round;stroke-miterlimit:10;}
	.st29{fill:#E16C7A;}
	.st30{fill:none;stroke:#FFFFFF;stroke-width:0.6;stroke-linecap:round;stroke-linejoin:round;stroke-miterlimit:10;}
	.st31{clip-path:url(#SVGID_9_);fill:#293267;}
	.st32{clip-path:url(#SVGID_9_);fill:#2A3368;}
	.st33{clip-path:url(#SVGID_9_);fill:#2B3469;}
	.st34{clip-path:url(#SVGID_9_);fill:#2B356A;}
	.st35{clip-path:url(#SVGID_9_);fill:#2C366B;}
	.st36{clip-path:url(#SVGID_9_);fill:#2D376C;}
	.st37{clip-path:url(#SVGID_9_);fill:#2E376D;}
	.st38{clip-path:url(#SVGID_9_);fill:#2F386E;}
	.st39{clip-path:url(#SVGID_9_);fill:#30396F;}
	.st40{clip-path:url(#SVGID_9_);fill:#303A70;}
	.st41{clip-path:url(#SVGID_9_);fill:#313B71;}
	.st42{clip-path:url(#SVGID_9_);fill:#323C72;}
	.st43{clip-path:url(#SVGID_9_);fill:#333D74;}
	.st44{clip-path:url(#SVGID_9_);fill:#343E75;}
	.st45{clip-path:url(#SVGID_9_);fill:#343F76;}
	.st46{clip-path:url(#SVGID_9_);fill:#354077;}
	.st47{clip-path:url(#SVGID_9_);fill:#364178;}
	.st48{clip-path:url(#SVGID_9_);fill:#374179;}
	.st49{clip-path:url(#SVGID_9_);fill:#38427A;}
	.st50{clip-path:url(#SVGID_9_);fill:#39437B;}
	.st51{clip-path:url(#SVGID_9_);fill:#39447C;}
	.st52{clip-path:url(#SVGID_9_);fill:#3A457D;}
	.st53{clip-path:url(#SVGID_9_);fill:#3B467E;}
	.st54{fill:none;stroke:#A39EE9;stroke-width:0.6;stroke-linecap:round;stroke-linejoin:round;stroke-miterlimit:10;}
	.st55{fill:#384172;}
</style>
<g>
	<g>
		<ellipse class="st0" cx="253" cy="258.67" rx="234.05" ry="7.75"/>
		<g>
			<g>
				<path class="st1" d="M166.23,215.76v-1.76H45.64c-2.34,0-4.24,1.9-4.24,4.24v13.26c0,2.34,1.9,4.24,4.24,4.24h120.59v-1.76
					h-1.16v-18.21H166.23z"/>
				<path class="st2" d="M174.04,237.49v-1.76H32.25c-2.34,0-4.24,1.9-4.24,4.24v13.26c0,2.34,1.9,4.24,4.24,4.24h141.78v-1.76
					h-1.16v-18.21H174.04z"/>
				<path class="st3" d="M33.17,253.22v-13.26c0-2.34,1.9-4.24,4.24-4.24h-2.1c-2.34,0-4.24,1.9-4.24,4.24v13.26
					c0,2.34,1.9,4.24,4.24,4.24h2.1C35.07,257.46,33.17,255.56,33.17,253.22z"/>
				<path class="st3" d="M38.6,253.22v-13.26c0-2.34,1.9-4.24,4.24-4.24h-2.1c-2.34,0-4.24,1.9-4.24,4.24v13.26
					c0,2.34,1.9,4.24,4.24,4.24h2.1C40.5,257.46,38.6,255.56,38.6,253.22z"/>
				<path class="st3" d="M165.07,233.96H65.21c-1.96,0-3.55-1.59-3.55-3.55v-11.11c0-1.96,1.59-3.55,3.55-3.55h99.86V233.96z"/>
				<path class="st3" d="M172.88,255.7H79.34c-1.96,0-3.55-1.59-3.55-3.55v-11.11c0-1.96,1.59-3.55,3.55-3.55h93.54V255.7z"/>
				<path class="st4" d="M28.01,204.62v-1.76H169.8c2.34,0,4.24,1.9,4.24,4.24v2.66c0,2.34-1.9,4.24-4.24,4.24H28.01v-1.76h1.16
					v-7.61H28.01z"/>
				<path class="st3" d="M29.17,212.23h93.54c1.96,0,3.55-1.59,3.55-3.55v-0.51c0-1.96-1.59-3.55-3.55-3.55H29.17V212.23z"/>
				<rect x="44.9" y="217.82" class="st3" width="4.93" height="14.09"/>
				<rect x="51.87" y="217.82" class="st3" width="1.36" height="14.09"/>
			</g>
			<g>
				<g>
					<linearGradient id="SVGID_1_" gradientUnits="userSpaceOnUse" x1="94.3035" y1="184.3229" x2="94.3035" y2="197.8469">
						<stop  offset="0" style="stop-color:#293267"/>
						<stop  offset="0.999" style="stop-color:#3B467E"/>
					</linearGradient>
					<rect x="63.33" y="164.84" class="st5" width="61.96" height="38.02"/>
					<linearGradient id="SVGID_2_" gradientUnits="userSpaceOnUse" x1="93.9483" y1="150.2294" x2="93.9483" y2="174.3714">
						<stop  offset="0" style="stop-color:#293267"/>
						<stop  offset="0.999" style="stop-color:#3B467E"/>
					</linearGradient>
					<polygon class="st6" points="93.95,145.69 33.94,164.84 93.95,183.99 153.96,164.84 					"/>
				</g>
				<polyline class="st7" points="93.95,160.71 54.49,171.4 54.49,187.1 				"/>
				<path class="st1" d="M56.89,197.76h-4.6v-10.19c0-1.27,1.03-2.3,2.3-2.3l0,0c1.27,0,2.3,1.03,2.3,2.3V197.76z"/>
			</g>
			<g>
				<polygon class="st8" points="355.19,31.34 387.83,17.17 356.96,24.89 				"/>
				<g>
					<polygon class="st3" points="355.19,22.42 387.83,17.17 349.42,14.36 					"/>
					<polygon class="st3" points="356.96,24.89 363.33,33.79 387.83,17.17 					"/>
				</g>
				<polygon class="st9" points="355.19,22.42 355.19,31.34 356.96,24.89 387.83,17.17 				"/>
			</g>
			<path class="st10" d="M468.27,57.24c-0.56,0-1.11,0.06-1.64,0.16c-0.87-5.74-5.81-10.15-11.8-10.15
				c-6.6,0-11.95,5.35-11.95,11.95c0,0.46,0.03,0.9,0.08,1.35c-0.45-0.09-0.91-0.13-1.38-0.13c-4.03,0-7.29,3.26-7.29,7.29
				c0,4.03,3.27,7.29,7.29,7.29h26.69c4.9,0,8.88-3.97,8.88-8.88S473.17,57.24,468.27,57.24z"/>
			<path class="st10" d="M110.77,29c-0.69,0-1.37,0.07-2.03,0.2c-1.08-7.1-7.19-12.55-14.59-12.55c-8.16,0-14.78,6.62-14.78,14.78
				c0,0.56,0.04,1.12,0.1,1.67c-0.55-0.11-1.12-0.17-1.7-0.17c-4.98,0-9.02,4.04-9.02,9.02s4.04,9.02,9.02,9.02h33
				c6.06,0,10.98-4.92,10.98-10.98S116.84,29,110.77,29z"/>
			<g>
				<g>
					<path class="st11" d="M238.68,52.97c-0.03,0-0.07,0-0.1-0.01c-0.28-0.05-0.46-0.32-0.4-0.6c0.07-0.34,0.14-0.68,0.22-1.01
						c0.06-0.27,0.33-0.44,0.61-0.38c0.27,0.06,0.44,0.34,0.38,0.61c-0.08,0.32-0.15,0.65-0.21,0.98
						C239.13,52.8,238.92,52.97,238.68,52.97z"/>
				</g>
				<g>
					<path class="st11" d="M240.49,47.11c-0.07,0-0.13-0.01-0.2-0.04c-0.26-0.11-0.38-0.41-0.27-0.67c0.27-0.64,0.56-1.27,0.88-1.89
						c0.13-0.25,0.43-0.35,0.68-0.23c0.25,0.13,0.35,0.43,0.23,0.68c-0.3,0.6-0.59,1.21-0.85,1.83
						C240.88,46.99,240.69,47.11,240.49,47.11z M244,40.87c-0.1,0-0.21-0.03-0.3-0.1c-0.23-0.16-0.28-0.48-0.12-0.71
						c0.4-0.56,0.82-1.11,1.26-1.65c0.18-0.22,0.5-0.25,0.72-0.08c0.22,0.18,0.25,0.5,0.08,0.72c-0.42,0.53-0.83,1.06-1.22,1.61
						C244.32,40.8,244.16,40.87,244,40.87z M330.82,37.24c-0.25,0-0.51,0-0.77-0.01c-0.28-0.01-0.5-0.24-0.5-0.52
						c0.01-0.28,0.26-0.49,0.52-0.5c0.68,0.02,1.35,0.01,2.01-0.02c0.32-0.01,0.52,0.2,0.53,0.48c0.01,0.28-0.2,0.52-0.48,0.53
						C331.71,37.23,331.27,37.24,330.82,37.24z M324.99,36.66c-0.03,0-0.06,0-0.1-0.01c-0.68-0.13-1.36-0.28-2.03-0.44
						c-0.27-0.07-0.44-0.34-0.38-0.61c0.06-0.27,0.34-0.44,0.61-0.38c0.66,0.16,1.32,0.3,1.98,0.43c0.28,0.05,0.46,0.32,0.4,0.6
						C325.44,36.49,325.22,36.66,324.99,36.66z M337.18,36.48c-0.23,0-0.44-0.16-0.49-0.39c-0.07-0.27,0.1-0.55,0.37-0.62
						c0.65-0.16,1.3-0.35,1.93-0.55c0.27-0.09,0.55,0.06,0.64,0.33c0.09,0.27-0.06,0.56-0.33,0.64c-0.66,0.22-1.34,0.41-2.01,0.57
						C337.26,36.47,337.22,36.48,337.18,36.48z M248.73,35.49c-0.14,0-0.27-0.05-0.37-0.16c-0.19-0.2-0.18-0.53,0.02-0.72
						c0.5-0.47,1.02-0.93,1.55-1.38c0.22-0.18,0.54-0.15,0.72,0.06c0.18,0.21,0.15,0.54-0.06,0.72c-0.52,0.44-1.02,0.89-1.51,1.35
						C248.98,35.44,248.85,35.49,248.73,35.49z M318.06,34.81c-0.05,0-0.11-0.01-0.16-0.03c-0.65-0.22-1.3-0.44-1.95-0.67
						c-0.26-0.09-0.4-0.39-0.31-0.65c0.09-0.26,0.39-0.4,0.65-0.31c0.64,0.23,1.28,0.45,1.93,0.67c0.27,0.09,0.41,0.38,0.32,0.64
						C318.47,34.67,318.27,34.81,318.06,34.81z M343.86,33.92c-0.18,0-0.36-0.1-0.45-0.28c-0.13-0.25-0.03-0.56,0.22-0.69
						c0.59-0.31,1.18-0.63,1.77-0.98c0.24-0.14,0.55-0.06,0.7,0.18c0.14,0.24,0.06,0.55-0.18,0.7c-0.6,0.35-1.21,0.69-1.82,1
						C344.02,33.9,343.94,33.92,343.86,33.92z M311.33,32.31c-0.06,0-0.13-0.01-0.19-0.04l-1.91-0.76c-0.26-0.1-0.39-0.4-0.29-0.66
						c0.1-0.26,0.4-0.39,0.66-0.29l1.91,0.76c0.26,0.1,0.39,0.4,0.29,0.66C311.73,32.19,311.54,32.31,311.33,32.31z M254.37,31.07
						c-0.17,0-0.33-0.08-0.43-0.23c-0.15-0.24-0.09-0.55,0.15-0.7c0.58-0.38,1.17-0.74,1.77-1.09c0.24-0.14,0.55-0.06,0.7,0.18
						c0.14,0.24,0.06,0.56-0.18,0.7c-0.58,0.34-1.16,0.69-1.72,1.06C254.56,31.05,254.47,31.07,254.37,31.07z M304.65,29.7
						c-0.06,0-0.12-0.01-0.18-0.03c-0.64-0.24-1.28-0.47-1.92-0.69c-0.27-0.09-0.41-0.38-0.31-0.65c0.09-0.27,0.38-0.41,0.65-0.31
						c0.65,0.23,1.29,0.46,1.94,0.7c0.26,0.1,0.4,0.39,0.3,0.65C305.05,29.58,304.86,29.7,304.65,29.7z M260.69,27.7
						c-0.2,0-0.39-0.12-0.47-0.31c-0.11-0.26,0.01-0.56,0.27-0.67c0.64-0.27,1.28-0.53,1.93-0.77c0.27-0.1,0.56,0.04,0.65,0.3
						c0.1,0.26-0.04,0.56-0.3,0.65c-0.63,0.23-1.26,0.48-1.88,0.75C260.83,27.69,260.76,27.7,260.69,27.7z M297.83,27.47
						c-0.05,0-0.09-0.01-0.14-0.02c-0.65-0.19-1.31-0.37-1.97-0.55c-0.27-0.07-0.43-0.35-0.36-0.62c0.07-0.27,0.35-0.43,0.62-0.36
						c0.66,0.18,1.32,0.36,1.98,0.55c0.27,0.08,0.43,0.36,0.35,0.63C298.26,27.32,298.06,27.47,297.83,27.47z M290.88,25.72
						c-0.03,0-0.07,0-0.1-0.01c-0.67-0.14-1.33-0.27-2-0.39c-0.28-0.05-0.46-0.32-0.41-0.59c0.05-0.28,0.32-0.46,0.59-0.41
						c0.68,0.12,1.35,0.26,2.02,0.4c0.28,0.06,0.45,0.33,0.39,0.6C291.33,25.56,291.12,25.72,290.88,25.72z M267.5,25.46
						c-0.23,0-0.44-0.16-0.5-0.39c-0.06-0.27,0.11-0.55,0.38-0.61c0.68-0.16,1.35-0.3,2.03-0.43c0.27-0.06,0.54,0.13,0.59,0.41
						c0.05,0.28-0.13,0.54-0.41,0.59c-0.66,0.12-1.32,0.26-1.98,0.42C267.58,25.46,267.54,25.46,267.5,25.46z M283.8,24.6
						c-0.02,0-0.04,0-0.05,0c-0.67-0.07-1.35-0.13-2.02-0.18c-0.28-0.02-0.49-0.26-0.47-0.54c0.02-0.28,0.27-0.48,0.54-0.47
						c0.69,0.05,1.37,0.11,2.06,0.18c0.28,0.03,0.48,0.28,0.45,0.56C284.28,24.4,284.06,24.6,283.8,24.6z M274.59,24.4
						c-0.26,0-0.49-0.21-0.51-0.47c-0.02-0.28,0.19-0.52,0.47-0.54c0.69-0.05,1.38-0.08,2.07-0.1c0.01,0,0.01,0,0.01,0
						c0.28,0,0.5,0.22,0.51,0.5c0.01,0.28-0.21,0.52-0.5,0.52c-0.68,0.02-1.35,0.05-2.03,0.1C274.61,24.4,274.6,24.4,274.59,24.4z"
						/>
				</g>
				<g>
					<path class="st11" d="M349.96,30.08c-0.16,0-0.31-0.07-0.41-0.21c-0.17-0.23-0.12-0.55,0.11-0.71c0.27-0.2,0.54-0.4,0.81-0.6
						c0.22-0.17,0.54-0.13,0.71,0.1c0.17,0.22,0.13,0.54-0.1,0.71c-0.27,0.21-0.55,0.41-0.82,0.61
						C350.17,30.05,350.07,30.08,349.96,30.08z"/>
				</g>
			</g>
		</g>
		<g>
			<path class="st3" d="M464.1,214.62c0,0,13.4-8.13,20.28,1.25c7.59,10.34-10.41,44.93-22.34,32.01c-11.93-12.92,0-8.65,0-8.65
				s5.32,8.8,11.52,0.62c6.41-8.46,7.87-18.17,3.08-20.07c-4.79-1.9-11.21,2.79-11.21,2.79L464.1,214.62z"/>
			<path class="st3" d="M462.79,258.67h-39.65c-0.71,0-1.31-0.55-1.37-1.26l-4.58-55.46c-0.07-0.8,0.57-1.49,1.37-1.49h48.8
				c0.8,0,1.43,0.69,1.37,1.49l-4.58,55.46C464.1,258.12,463.5,258.67,462.79,258.67z"/>
			<path class="st12" d="M438.43,138.16c4.17,3.48,6.51,9.05,6.07,14.46c-0.59,7.26-5.7,13.43-7.01,20.59
				c-0.99,5.39,0.34,11.17,3.58,15.6c-2.25-3.8-1.89-7.95-0.86-12.24c1.03-4.3,3.02-8.29,4.66-12.39c1.64-4.1,2.95-8.48,2.51-12.88
				C446.81,145.73,443.43,140.68,438.43,138.16z"/>
			<path class="st12" d="M439.5,146.83c-3.13-2-5.36-5.35-5.99-9c-0.63-3.66,0.33-7.56,2.6-10.5c-3.74,2.19-5.66,6.36-5,10.65
				S435.27,145.86,439.5,146.83z"/>
			<path class="st12" d="M453.13,166.88c-3.73,2.89-7.17,6.41-8.87,10.81c-1.7,4.4-1.33,9.83,1.85,13.32
				C445.32,182.47,447.89,173.67,453.13,166.88z"/>
		</g>
		<g>
			<g>
				<path class="st2" d="M271.38,129.2c-0.25,0.11-0.53-0.01-0.64-0.25l-1.7-3.93l-3.93,1.7c-0.25,0.11-0.53-0.01-0.64-0.25
					l-1.7-3.93l-3.93,1.7c-0.25,0.11-0.53-0.01-0.64-0.25l-1.7-3.93l-3.93,1.7c-0.25,0.11-0.53-0.01-0.64-0.25
					c-0.11-0.25,0.01-0.53,0.25-0.64l4.38-1.89c0.25-0.11,0.53,0.01,0.64,0.25l1.7,3.93l3.93-1.7c0.25-0.11,0.53,0.01,0.64,0.25
					l1.7,3.93l3.93-1.7c0.25-0.11,0.53,0.01,0.64,0.25l1.89,4.38C271.74,128.81,271.63,129.1,271.38,129.2z"/>
			</g>
			<g>
				<path class="st1" d="M95.18,132.33l-5.59-0.75c-0.27-0.04-0.45-0.28-0.42-0.55l0.75-5.59c0.04-0.27,0.28-0.45,0.55-0.42
					l5.59,0.75c0.27,0.04,0.45,0.28,0.42,0.55l-0.75,5.59C95.69,132.18,95.44,132.37,95.18,132.33z M90.2,130.68l4.63,0.62
					l0.62-4.63l-4.63-0.62L90.2,130.68z"/>
			</g>
			<g>
				<path class="st2" d="M189.68,55.09c-0.07,0.05-0.15,0.08-0.24,0.08c-0.17,0.01-0.34-0.07-0.44-0.21L185.65,50
					c-0.1-0.14-0.11-0.33-0.03-0.49c0.08-0.16,0.23-0.26,0.4-0.27l5.97-0.42c0.17-0.01,0.34,0.07,0.44,0.21
					c0.1,0.14,0.11,0.33,0.03,0.49l-2.62,5.38C189.81,54.98,189.75,55.05,189.68,55.09z M186.93,50.16l2.41,3.56l1.88-3.86
					L186.93,50.16z"/>
			</g>
			<g>
				<path class="st3" d="M418.76,174.84c-0.08,0.01-0.17,0.01-0.25-0.02c-0.16-0.06-0.28-0.2-0.31-0.38l-1-5.9
					c-0.03-0.17,0.04-0.35,0.17-0.46c0.13-0.11,0.32-0.14,0.48-0.08l5.61,2.08c0.16,0.06,0.28,0.2,0.31,0.38
					c0.03,0.17-0.04,0.35-0.17,0.46l-4.61,3.82C418.93,174.79,418.85,174.83,418.76,174.84z M418.3,169.21l0.72,4.23l3.31-2.74
					L418.3,169.21z"/>
			</g>
			<g>
				<path class="st4" d="M281.18,124.15c-0.04,0.08-0.09,0.14-0.16,0.19c-0.14,0.1-0.33,0.12-0.49,0.05l-5.44-2.5
					c-0.16-0.07-0.27-0.22-0.28-0.4c-0.02-0.17,0.06-0.34,0.2-0.44l4.88-3.46c0.14-0.1,0.33-0.12,0.49-0.05
					c0.16,0.07,0.27,0.22,0.28,0.4l0.56,5.96C281.23,123.98,281.22,124.07,281.18,124.15z M276.27,121.36l3.9,1.79l-0.4-4.28
					L276.27,121.36z"/>
			</g>
			<path class="st3" d="M284.99,32.34c-0.08-0.26-0.35-0.41-0.61-0.33l-1.98,0.59l-0.59-1.98c-0.08-0.26-0.35-0.41-0.61-0.33
				c-0.26,0.08-0.41,0.35-0.33,0.61l0.59,1.98l-1.98,0.59c-0.26,0.08-0.41,0.35-0.33,0.61c0.08,0.26,0.35,0.41,0.61,0.33l1.98-0.59
				l0.59,1.98c0.08,0.26,0.35,0.41,0.61,0.33c0.26-0.08,0.41-0.35,0.33-0.61l-0.59-1.98l1.98-0.59
				C284.92,32.87,285.07,32.6,284.99,32.34z"/>
			<path class="st2" d="M348.76,223.61l-1.83-0.96l0.96-1.83c0.13-0.24,0.03-0.53-0.21-0.66c-0.24-0.13-0.53-0.03-0.66,0.21
				l-0.96,1.83l-1.83-0.96c-0.24-0.13-0.53-0.03-0.66,0.21c-0.13,0.24-0.03,0.53,0.21,0.66l1.83,0.96l-0.96,1.83
				c-0.13,0.24-0.03,0.53,0.21,0.66c0.24,0.13,0.53,0.03,0.66-0.21l0.96-1.83l1.83,0.96c0.24,0.13,0.53,0.03,0.66-0.21
				C349.1,224.03,349,223.74,348.76,223.61z"/>
			<path class="st1" d="M423.21,155.39l-1.87,0.87l-0.87-1.87c-0.11-0.24-0.4-0.35-0.65-0.24c-0.24,0.11-0.35,0.4-0.24,0.65
				l0.87,1.87l-1.87,0.87c-0.24,0.11-0.35,0.4-0.24,0.65c0.11,0.24,0.4,0.35,0.65,0.24l1.87-0.87l0.87,1.87
				c0.11,0.24,0.4,0.35,0.65,0.24c0.24-0.11,0.35-0.4,0.24-0.65l-0.87-1.87l1.87-0.87c0.24-0.11,0.35-0.4,0.24-0.65
				C423.74,155.39,423.45,155.28,423.21,155.39z"/>
		</g>
		<g>
			<linearGradient id="SVGID_3_" gradientUnits="userSpaceOnUse" x1="250.7416" y1="258.4257" x2="250.7416" y2="244.5424">
				<stop  offset="0" style="stop-color:#293267"/>
				<stop  offset="0.999" style="stop-color:#3B467E"/>
			</linearGradient>
			<path class="st13" d="M400.94,257.46h-300.4c-4.26,0-7.72-3.46-7.72-7.72v-3.86h315.85v3.86
				C408.67,254.01,405.21,257.46,400.94,257.46z"/>
			<linearGradient id="SVGID_4_" gradientUnits="userSpaceOnUse" x1="250.7416" y1="240.7126" x2="250.7416" y2="76.94">
				<stop  offset="0" style="stop-color:#293267"/>
				<stop  offset="0.999" style="stop-color:#3B467E"/>
			</linearGradient>
			<path class="st14" d="M386.27,64.4H115.21c-4.26,0-7.72,3.46-7.72,7.72v173.76h286.5V72.12C393.99,67.86,390.54,64.4,386.27,64.4
				z"/>
			
				<rect x="170.81" y="22.7" transform="matrix(-1.836970e-16 1 -1 -1.836970e-16 405.8812 -95.6019)" class="st15" width="159.86" height="264.88"/>
			<g>
				<path class="st3" d="M420.59,146.47H262.71c-1.28,0-2.32-1.04-2.32-2.32V44.71c0-1.28,1.04-2.32,2.32-2.32h157.89
					c1.28,0,2.32,1.04,2.32,2.32v99.45C422.91,145.43,421.87,146.47,420.59,146.47z"/>
				<circle class="st4" cx="268.29" cy="49.66" r="2.03"/>
				<circle class="st1" cx="275.87" cy="49.66" r="2.03"/>
				<path class="st16" d="M285.48,49.66c0,1.12-0.91,2.03-2.03,2.03c-1.12,0-2.03-0.91-2.03-2.03s0.91-2.03,2.03-2.03
					C284.57,47.63,285.48,48.54,285.48,49.66z"/>
				<path class="st17" d="M309.9,89.51h-42.1c-0.85,0-1.54-0.69-1.54-1.54V59.38c0-0.85,0.69-1.54,1.54-1.54h42.1
					c0.85,0,1.54,0.69,1.54,1.54v28.58C311.45,88.81,310.76,89.51,309.9,89.51z"/>
				<path class="st17" d="M362.19,89.51h-42.1c-0.85,0-1.54-0.69-1.54-1.54V59.38c0-0.85,0.69-1.54,1.54-1.54h42.1
					c0.85,0,1.54,0.69,1.54,1.54v28.58C363.73,88.81,363.04,89.51,362.19,89.51z"/>
				<path class="st17" d="M414.48,89.51h-42.1c-0.85,0-1.54-0.69-1.54-1.54V59.38c0-0.85,0.69-1.54,1.54-1.54h42.1
					c0.85,0,1.54,0.69,1.54,1.54v28.58C416.02,88.81,415.33,89.51,414.48,89.51z"/>
				<path class="st17" d="M414.34,100.42h-94.12c-0.93,0-1.68-0.75-1.68-1.68l0,0c0-0.93,0.75-1.68,1.68-1.68h94.12
					c0.93,0,1.68,0.75,1.68,1.68l0,0C416.02,99.67,415.27,100.42,414.34,100.42z"/>
				<path class="st17" d="M414.34,109.14h-94.12c-0.93,0-1.68-0.75-1.68-1.68l0,0c0-0.93,0.75-1.68,1.68-1.68h94.12
					c0.93,0,1.68,0.75,1.68,1.68l0,0C416.02,108.39,415.27,109.14,414.34,109.14z"/>
				<path class="st17" d="M349.3,117.86h-29.07c-0.93,0-1.68-0.75-1.68-1.68l0,0c0-0.93,0.75-1.68,1.68-1.68h29.07
					c0.93,0,1.68,0.75,1.68,1.68l0,0C350.98,117.1,350.23,117.86,349.3,117.86z"/>
				<path class="st1" d="M292.16,135.5h-19.23c-0.61,0-1.11-0.5-1.11-1.11l0,0c0-0.61,0.5-1.11,1.11-1.11h19.23
					c0.61,0,1.11,0.5,1.11,1.11l0,0C293.27,135.01,292.78,135.5,292.16,135.5z"/>
				<path class="st4" d="M331.31,135.5h-30.57c-0.61,0-1.11-0.5-1.11-1.11l0,0c0-0.61,0.5-1.11,1.11-1.11h30.57
					c0.61,0,1.11,0.5,1.11,1.11l0,0C332.42,135.01,331.92,135.5,331.31,135.5z"/>
				<path class="st17" d="M345.17,135.5h-5.19c-0.61,0-1.11-0.5-1.11-1.11l0,0c0-0.61,0.5-1.11,1.11-1.11h5.19
					c0.61,0,1.11,0.5,1.11,1.11l0,0C346.28,135.01,345.78,135.5,345.17,135.5z"/>
			</g>
			<g>
				<path class="st2" d="M294.91,95.05h-61.16c-1.14,0-2.07,0.93-2.07,2.07v11.95c0,1.14,0.93,2.07,2.07,2.07h5.68v5.37l5.37-5.37
					h50.12c1.14,0,2.07-0.93,2.07-2.07V97.12C296.98,95.98,296.05,95.05,294.91,95.05z"/>
				<path class="st18" d="M247.94,101.38h-9.38c-0.57,0-1.04-0.46-1.04-1.04c0-0.57,0.46-1.04,1.04-1.04h9.38
					c0.57,0,1.04,0.46,1.04,1.04C248.98,100.92,248.52,101.38,247.94,101.38z M258.36,105.27c0-0.57-0.46-1.04-1.04-1.04h-18.76
					c-0.57,0-1.04,0.46-1.04,1.04c0,0.57,0.46,1.04,1.04,1.04h18.76C257.9,106.3,258.36,105.84,258.36,105.27z M268.55,105.27
					c0-0.57-0.46-1.04-1.04-1.04h-5.42c-0.57,0-1.04,0.46-1.04,1.04c0,0.57,0.46,1.04,1.04,1.04h5.42
					C268.09,106.3,268.55,105.84,268.55,105.27z M282.87,105.27c0-0.57-0.46-1.04-1.04-1.04h-9.58c-0.57,0-1.04,0.46-1.04,1.04
					c0,0.57,0.46,1.04,1.04,1.04h9.58C282.41,106.3,282.87,105.84,282.87,105.27z M291.01,105.27c0-0.57-0.46-1.04-1.04-1.04h-4.02
					c-0.57,0-1.04,0.46-1.04,1.04c0,0.57,0.46,1.04,1.04,1.04h4.02C290.54,106.3,291.01,105.84,291.01,105.27z M276.28,100.35
					c0-0.57-0.46-1.04-1.04-1.04h-21.58c-0.57,0-1.04,0.46-1.04,1.04c0,0.57,0.46,1.04,1.04,1.04h21.58
					C275.82,101.38,276.28,100.92,276.28,100.35z M291.01,100.35c0-0.57-0.46-1.04-1.04-1.04h-9.9c-0.57,0-1.04,0.46-1.04,1.04
					c0,0.57,0.46,1.04,1.04,1.04h9.9C290.54,101.38,291.01,100.92,291.01,100.35z"/>
			</g>
			<g>
				<circle class="st1" cx="280.43" cy="169.52" r="10.85"/>
			</g>
			<g>
				<circle class="st1" cx="333.86" cy="169.52" r="10.85"/>
			</g>
			<g>
				<circle class="st1" cx="307.14" cy="169.52" r="10.85"/>
			</g>
			<g>
				<path class="st3" d="M338.67,168.92c-0.54,0-1.03-0.39-1.14-0.94c-0.03-0.17-0.18-0.34-0.41-0.34c-0.23,0-0.38,0.17-0.41,0.34
					c-0.12,0.63-0.73,1.03-1.36,0.92c-0.63-0.12-1.04-0.73-0.92-1.36c0.25-1.29,1.38-2.22,2.68-2.22c1.31,0,2.44,0.93,2.68,2.22
					c0.12,0.63-0.29,1.24-0.92,1.36C338.81,168.91,338.74,168.92,338.67,168.92z"/>
			</g>
			<g>
				<path class="st3" d="M332.14,168.92c-0.54,0-1.03-0.39-1.14-0.94c-0.03-0.17-0.18-0.34-0.41-0.34s-0.38,0.17-0.41,0.34
					c-0.12,0.63-0.73,1.03-1.36,0.92c-0.63-0.12-1.04-0.73-0.92-1.36c0.25-1.29,1.38-2.22,2.68-2.22s2.44,0.93,2.68,2.22
					c0.12,0.63-0.29,1.24-0.92,1.36C332.28,168.91,332.21,168.92,332.14,168.92z"/>
			</g>
			<g>
				<path class="st3" d="M333.86,176.57c-2.48,0-4.73-1.27-6.03-3.4c-0.33-0.55-0.16-1.26,0.39-1.59c0.55-0.33,1.26-0.16,1.59,0.39
					c0.87,1.43,2.38,2.29,4.05,2.29c1.67,0,3.18-0.85,4.05-2.29c0.33-0.55,1.05-0.72,1.59-0.39c0.55,0.33,0.72,1.04,0.39,1.59
					C338.59,175.3,336.34,176.57,333.86,176.57z"/>
			</g>
			<g>
				<path class="st3" d="M305.52,167.36c0,1.01-0.82,1.83-1.83,1.83c-1.01,0-1.83-0.82-1.83-1.83s0.82-1.83,1.83-1.83
					C304.7,165.52,305.52,166.34,305.52,167.36z"/>
			</g>
			<g>
				<path class="st3" d="M308.77,167.36c0,1.01,0.82,1.83,1.83,1.83c1.01,0,1.83-0.82,1.83-1.83s-0.82-1.83-1.83-1.83
					C309.59,165.52,308.77,166.34,308.77,167.36z"/>
			</g>
			<g>
				<path class="st3" d="M285.47,175.41c-0.39,0-0.77-0.2-0.99-0.56c-0.87-1.43-2.38-2.29-4.05-2.29c-1.66,0-3.18,0.85-4.05,2.29
					c-0.33,0.55-1.04,0.72-1.59,0.39c-0.55-0.33-0.72-1.04-0.39-1.59c1.29-2.13,3.55-3.4,6.03-3.4c2.48,0,4.73,1.27,6.03,3.4
					c0.33,0.55,0.16,1.26-0.39,1.59C285.88,175.35,285.67,175.41,285.47,175.41z"/>
			</g>
			<g>
				<path class="st3" d="M278.8,167.36c0,1.01-0.82,1.83-1.83,1.83c-1.01,0-1.83-0.82-1.83-1.83s0.82-1.83,1.83-1.83
					C277.98,165.52,278.8,166.34,278.8,167.36z"/>
			</g>
			<g>
				<path class="st3" d="M282.06,167.36c0,1.01,0.82,1.83,1.83,1.83c1.01,0,1.83-0.82,1.83-1.83s-0.82-1.83-1.83-1.83
					C282.88,165.52,282.06,166.34,282.06,167.36z"/>
			</g>
			<g>
				<path class="st3" d="M311.52,174.5h-8.74c-0.64,0-1.16-0.52-1.16-1.16c0-0.64,0.52-1.16,1.16-1.16h8.74
					c0.64,0,1.16,0.52,1.16,1.16C312.67,173.98,312.15,174.5,311.52,174.5z"/>
			</g>
			<g>
				<path class="st19" d="M328.77,190.93h-40.03c-1.28,0-2.32,1.04-2.32,2.32v21.3c0,1.28,1.04,2.32,2.32,2.32h5.58v6l6-6h28.46
					c1.28,0,2.32-1.04,2.32-2.32v-21.3C331.09,191.97,330.05,190.93,328.77,190.93z"/>
				<path class="st20" d="M323.44,203.68c0,1.56-1.27,2.83-2.83,2.83c-1.56,0-2.83-1.27-2.83-2.83c0-1.56,1.27-2.83,2.83-2.83
					C322.17,200.85,323.44,202.12,323.44,203.68z M309.74,200.85c-1.56,0-2.83,1.27-2.83,2.83c0,1.56,1.27,2.83,2.83,2.83
					c1.56,0,2.83-1.27,2.83-2.83C312.57,202.12,311.31,200.85,309.74,200.85z M298.88,200.85c-1.56,0-2.83,1.27-2.83,2.83
					c0,1.56,1.27,2.83,2.83,2.83c1.56,0,2.83-1.27,2.83-2.83C301.71,202.12,300.44,200.85,298.88,200.85z"/>
			</g>
			<path class="st11" d="M252.13,69.81c0,0.98-0.79,1.78-1.78,1.78c-0.98,0-1.78-0.79-1.78-1.78s0.79-1.78,1.78-1.78
				C251.34,68.03,252.13,68.83,252.13,69.81z"/>
			<g>
				<path class="st3" d="M215.77,224.09h-82.59c-3.41,0-6.18-2.77-6.18-6.18V89.35c0-3.41,2.77-6.18,6.18-6.18h82.59
					c3.41,0,6.18,2.77,6.18,6.18v128.56C221.95,221.32,219.19,224.09,215.77,224.09z"/>
				
					<rect x="137.02" y="91.69" transform="matrix(-1.836970e-16 1 -1 -1.836970e-16 304.3752 -44.5791)" class="st15" width="74.92" height="76.42"/>
				<path class="st19" d="M199.1,106.49h-22.37c-0.38,0-0.68-0.3-0.68-0.68s0.3-0.68,0.68-0.68h22.37c0.38,0,0.68,0.3,0.68,0.68
					S199.47,106.49,199.1,106.49z M190.58,110.29c0-0.38-0.3-0.68-0.68-0.68h-13.17c-0.38,0-0.68,0.3-0.68,0.68s0.3,0.68,0.68,0.68
					h13.17C190.27,110.97,190.58,110.67,190.58,110.29z M200.86,114.77c0-0.37-0.3-0.68-0.68-0.68h-23.45
					c-0.38,0-0.68,0.3-0.68,0.68c0,0.38,0.3,0.68,0.68,0.68h23.45C200.56,115.45,200.86,115.15,200.86,114.77z M180.11,119.25
					c0-0.38-0.3-0.68-0.68-0.68h-2.7c-0.38,0-0.68,0.3-0.68,0.68s0.3,0.68,0.68,0.68h2.7C179.81,119.93,180.11,119.63,180.11,119.25
					z M194.96,110.29c0-0.38-0.3-0.68-0.68-0.68h-1.64c-0.38,0-0.68,0.3-0.68,0.68s0.3,0.68,0.68,0.68h1.64
					C194.66,110.97,194.96,110.67,194.96,110.29z M208.57,110.29c0-0.38-0.3-0.68-0.68-0.68h-10.74c-0.38,0-0.68,0.3-0.68,0.68
					s0.3,0.68,0.68,0.68h10.74C208.27,110.97,208.57,110.67,208.57,110.29z M208.57,105.81c0-0.38-0.3-0.68-0.68-0.68h-6
					c-0.37,0-0.68,0.3-0.68,0.68s0.3,0.68,0.68,0.68h6C208.27,106.49,208.57,106.19,208.57,105.81z M185.53,119.25
					c0-0.38-0.3-0.68-0.68-0.68h-2.7c-0.37,0-0.68,0.3-0.68,0.68s0.3,0.68,0.68,0.68h2.7C185.22,119.93,185.53,119.63,185.53,119.25
					z"/>
				<g>
					<path class="st17" d="M212.68,181.72H146c-0.75,0-1.36-0.61-1.36-1.36c0-0.75,0.61-1.36,1.36-1.36h66.68
						c0.75,0,1.36,0.61,1.36,1.36C214.04,181.11,213.43,181.72,212.68,181.72z"/>
				</g>
				<g>
					<path class="st21" d="M146,181.72h-9.73c-0.75,0-1.36-0.61-1.36-1.36c0-0.75,0.61-1.36,1.36-1.36H146
						c0.75,0,1.36,0.61,1.36,1.36C147.36,181.11,146.75,181.72,146,181.72z"/>
				</g>
				<path class="st22" d="M149.33,180.36c0,1.84-1.49,3.33-3.33,3.33c-1.84,0-3.33-1.49-3.33-3.33c0-1.84,1.49-3.33,3.33-3.33
					C147.84,177.04,149.33,178.53,149.33,180.36z"/>
				
					<ellipse transform="matrix(0.9872 -0.1596 0.1596 0.9872 -29.99 30.3943)" class="st17" cx="174.21" cy="201.89" rx="11.46" ry="11.46"/>
				
					<ellipse transform="matrix(0.7071 -0.7071 0.7071 0.7071 -99.4856 163.5919)" class="st17" cx="147.73" cy="201.89" rx="8.4" ry="8.4"/>
				
					<ellipse transform="matrix(0.9734 -0.2289 0.2289 0.9734 -40.8877 51.3049)" class="st17" cx="200.69" cy="201.89" rx="8.4" ry="8.4"/>
				<g>
					<defs>
						
							<rect id="SVGID_5_" x="137.02" y="91.69" transform="matrix(-1.836970e-16 1 -1 -1.836970e-16 304.3752 -44.5791)" width="74.92" height="76.42"/>
					</defs>
					<clipPath id="SVGID_6_">
						<use xlink:href="#SVGID_5_"  style="overflow:visible;"/>
					</clipPath>
					<g class="st23">
						<g>
							<path class="st24" d="M140.86,168.08c-2.5,47.47,1.11,106.85,1.11,106.85l-3.8,3.97l14.93,1.78l-0.12-103.1
								c0-0.62,0.54-1.1,1.15-1.02l0,0c0.43,0.05,0.78,0.37,0.88,0.79l25.05,106.61l17.11,2.04l-7.12-5.46l-23.61-111.99
								L140.86,168.08z"/>
						</g>
						<g>
							<path class="st25" d="M192.16,136.36c0,0,1.21-4.28,1.94-5.13c0.73-0.85,2.66-1,3.04-0.96c0.61,0.07,1.29,0.46,1.29,0.46
								s1.12-0.79,1.71-0.53c1.34,0.59,0.02,1.74,0.02,1.74s1.15-0.12,1.42,0.54c0.28,0.65-0.82,1.18-0.82,1.18s0.71-0.15,1,0.41
								c0.29,0.56-0.66,1.6-0.66,1.6s1.16,0.1,0.65,1.3c-0.41,0.97-5.88,3.88-5.88,3.88l-1.26,0.51L192.16,136.36z"/>
						</g>
						<linearGradient id="SVGID_7_" gradientUnits="userSpaceOnUse" x1="149.1588" y1="174.5193" x2="167.6032" y2="125.7581">
							<stop  offset="0" style="stop-color:#FF647E"/>
							<stop  offset="1" style="stop-color:#FF8A7E"/>
						</linearGradient>
						<path class="st26" d="M192.16,136.36l-12.19,9.28l-3.03-13.78c-0.5-2.28-2.07-4.18-4.21-5.1c-1.5-0.62-3.84-1.37-7-1.96
							c-2.55-0.47-14.12-0.82-17.28-0.49c-3.17,0.33-6.19,0.85-7.25,1.57c-3.4,2.34-16.89,22.84-16.8,24.32
							c0.09,1.49,14.38,21.77,14.38,21.77l3.33-3.64l25.44,5.52l2.93-32.51l2.05,11.78c0.31,1.77,1.51,3.25,3.17,3.91h0
							c1.99,0.8,4.26,0.29,5.72-1.29l14.44-14.94L192.16,136.36z M134.83,150.64l8.35-10.75l-1.75,21.31L134.83,150.64z"/>
						<path class="st27" d="M158.74,145.56l7-20.75c-2.55-0.47-5.63-0.83-9.23-0.92c-1.61-0.04-4.89,0.1-8.05,0.43L158.74,145.56z"
							/>
						<path class="st28" d="M145.37,167.26c6.62,1.27,13.23,2.54,19.85,3.82"/>
						<g>
							<path class="st25" d="M146.06,164.59c0,0-3.98-2.33-4.97-1.51c-0.99,0.82-0.87,2.24-0.92,2.72
								c-0.05,0.48-1.71,1.04-1.89,2.56c-0.18,1.52-1.43,2.39-1.36,3.66c0.07,1.27,2.15,1.85,2.69,1.99
								c0.54,0.14,1.41-2.59,1.41-2.59s1.37,0.16,1.65-0.22c0.28-0.38,1.24-2.64,1.24-2.64s1.73-0.61,1.95-0.91
								c0.22-0.3,0.47-1.21,0.47-1.21l-0.98-0.6L146.06,164.59z"/>
						</g>
						<path class="st22" d="M155.19,121.81c0,0-1.27-0.27-1.86,0.38c-0.58,0.65-0.88,7.05,0.14,7.22c0.95,0.17,4.03-3.35,4.03-3.35
							s3.12,3.88,4.11,3.46c0.91-0.39-0.28-7.56-2.32-7.56C157.26,121.95,155.19,121.81,155.19,121.81z"/>
						<path class="st22" d="M168.02,105.81c0,0-0.04,3.24-1.31,4.72l-0.25-5.38L168.02,105.81z"/>
						<g>
							<path class="st25" d="M157.5,125.55c-0.86-0.09-1.6-0.2-2.08-0.99c-0.88-1.46-0.41-3.32-1.32-4.75
								c-0.43-0.67-1-1.23-1.5-1.85c-0.77-0.96-1.09-2.13-1.39-3.31c-1.31-5.31,0.68-16.47,8.57-15.4
								c7.89,1.07,7.33,9.94,6.58,13.95c-0.29,1.56-0.72,3.21-1.54,4.6c-0.42,0.71-0.95,1.38-1.63,1.86
								c-0.74,0.52-1.62,0.62-2.39,1.05c-1.05,0.59-0.85,2.07-0.97,3.09C159.68,125.11,158.8,125.68,157.5,125.55z"/>
						</g>
						<path class="st22" d="M170.36,107.67c-4.72,0.06-13.21-4.31-13.21-4.31c-0.2,3.11-3.95,3.65-3.95,3.65l-0.27,5.13l-0.95-0.28
							l-1.03-2.59l-0.31,0.26c0,0-2.91-3.36-2.53-4.93s2.34-3.29,2.34-3.29l-3.66-0.02l0.92-2.02l2.99,1.56
							c0.67-7.43,17.97-1.93,17.97-1.93c0.76-0.52,1.63-1.09,2.49-1.43c0.86-0.34,1.83-0.47,2.71-0.2c0.88,0.27,1.65,1.02,1.78,1.93
							c0.13,0.88-0.32,1.74-0.86,2.45c-0.91,1.2-2.13,2.18-3.51,2.8c0.67,0.17,1.46,0.69,1.47,1.38c0.01,0.64-0.47,1.2-1.04,1.49
							C171.16,107.59,171,107.67,170.36,107.67z"/>
						<g>
							<path class="st25" d="M152.04,111.5c-0.13,1.25-1.24,2.15-2.49,2.02c-1.25-0.13-2.15-1.24-2.02-2.49
								c0.13-1.25,1.24-2.15,2.49-2.02C151.27,109.14,152.17,110.25,152.04,111.5z"/>
						</g>
						<g>
							<path class="st25" d="M169.41,113.02c-0.13,1.25-1.24,2.15-2.49,2.02c-1.25-0.13-2.15-1.24-2.02-2.49
								c0.13-1.25,1.24-2.15,2.49-2.02C168.63,110.66,169.54,111.78,169.41,113.02z"/>
						</g>
						<g>
							<path class="st29" d="M161.08,114.48c-0.24,0-0.53-0.13-0.85-0.27c-0.17-0.08-0.34-0.15-0.49-0.2
								c-0.13-0.04-0.21-0.18-0.17-0.32c0.04-0.13,0.18-0.21,0.32-0.17c0.17,0.05,0.36,0.14,0.55,0.22c0.18,0.08,0.46,0.21,0.6,0.23
								c-0.03-0.47-0.31-1.02-0.53-1.43c-0.14-0.26-0.24-0.47-0.29-0.63c-0.09-0.33-0.06-0.68-0.02-1c0.02-0.14,0.15-0.24,0.29-0.22
								c0.14,0.02,0.24,0.15,0.22,0.29c-0.03,0.26-0.07,0.55,0,0.8c0.03,0.11,0.14,0.31,0.25,0.53c0.26,0.49,0.57,1.1,0.59,1.64
								c0.01,0.26-0.1,0.39-0.2,0.46C161.28,114.46,161.18,114.48,161.08,114.48z"/>
						</g>
						<g>
							<path class="st29" d="M159.8,116.1c-0.56,0-1.12-0.15-1.61-0.43c-0.64-0.36-1.14-0.94-1.41-1.63
								c-0.05-0.13,0.01-0.28,0.14-0.33c0.13-0.05,0.28,0.01,0.33,0.14c0.23,0.58,0.65,1.07,1.19,1.37
								c0.54,0.31,1.17,0.42,1.79,0.33c0.14-0.02,0.27,0.07,0.29,0.21c0.02,0.14-0.07,0.27-0.21,0.29
								C160.14,116.08,159.97,116.1,159.8,116.1z"/>
						</g>
						<g>
							<path class="st29" d="M166.21,114.24c-0.01,0-0.03,0-0.04,0c-0.14-0.02-0.23-0.16-0.21-0.29l0.44-2.55
								c0.02-0.14,0.16-0.24,0.29-0.21c0.14,0.02,0.23,0.16,0.21,0.29l-0.44,2.55C166.43,114.15,166.33,114.24,166.21,114.24z"/>
						</g>
						<g>
							<path class="st29" d="M166.54,112.77c-0.11,0-0.21-0.07-0.24-0.18c-0.04-0.13,0.04-0.28,0.17-0.32
								c0.42-0.12,0.86-0.19,1.3-0.19c0,0,0,0,0,0c0.14,0,0.25,0.11,0.25,0.25s-0.11,0.26-0.25,0.26c-0.4,0-0.79,0.06-1.17,0.17
								C166.59,112.77,166.56,112.77,166.54,112.77z"/>
						</g>
						<g>
							<path class="st29" d="M150.91,112.1c-0.04,0-0.07-0.01-0.11-0.02c-0.13-0.06-0.18-0.21-0.12-0.34
								c0.17-0.38,0.03-0.89-0.32-1.11c-0.35-0.23-0.87-0.16-1.15,0.15c-0.09,0.11-0.26,0.11-0.36,0.02
								c-0.1-0.09-0.11-0.25-0.02-0.36c0.44-0.5,1.25-0.6,1.81-0.24c0.55,0.36,0.78,1.15,0.5,1.75
								C151.1,112.04,151.01,112.1,150.91,112.1z"/>
						</g>
						<g>
							<path class="st29" d="M158.28,121.14c-1.02,0-2.04-0.21-2.98-0.63c-0.13-0.06-0.19-0.21-0.13-0.34
								c0.06-0.13,0.21-0.19,0.34-0.13c1.09,0.48,2.29,0.67,3.47,0.55c0.14-0.02,0.27,0.09,0.28,0.23c0.01,0.14-0.09,0.27-0.23,0.28
								C158.79,121.13,158.53,121.14,158.28,121.14z"/>
						</g>
						<g>
							<path class="st22" d="M159.84,107.73c-0.07,0-0.14-0.03-0.19-0.09c-0.39-0.46-0.97-0.74-1.57-0.75c-0.6,0-1.2,0.24-1.6,0.68
								c-0.09,0.1-0.26,0.11-0.36,0.01c-0.1-0.1-0.11-0.26-0.01-0.36c0.5-0.55,1.26-0.86,1.99-0.84c0.74,0.02,1.47,0.37,1.95,0.93
								c0.09,0.11,0.08,0.27-0.03,0.36C159.96,107.71,159.9,107.73,159.84,107.73z"/>
						</g>
						<g>
							<path class="st22" d="M165.3,108.91c-0.09,0-0.18-0.05-0.23-0.14c-0.25-0.51-0.72-0.9-1.28-1.04
								c-0.55-0.14-1.16-0.02-1.62,0.31c-0.11,0.08-0.27,0.06-0.36-0.06c-0.08-0.11-0.06-0.27,0.06-0.36
								c0.58-0.42,1.34-0.57,2.04-0.39c0.7,0.18,1.3,0.67,1.61,1.31c0.06,0.13,0.01,0.28-0.12,0.34
								C165.38,108.9,165.34,108.91,165.3,108.91z"/>
						</g>
						<path class="st22" d="M159.42,110.39c-0.05,0.44-0.45,0.75-0.89,0.7c-0.44-0.05-0.75-0.45-0.7-0.89
							c0.05-0.44,0.45-0.75,0.89-0.7C159.16,109.55,159.47,109.95,159.42,110.39z"/>
						<path class="st22" d="M163.65,111.07c-0.05,0.44-0.45,0.75-0.89,0.7c-0.44-0.05-0.75-0.45-0.7-0.89
							c0.05-0.44,0.45-0.75,0.89-0.7C163.39,110.24,163.71,110.64,163.65,111.07z"/>
						<g>
							<path class="st29" d="M197.95,135.01c-0.01,0-0.02,0-0.04,0c-0.36-0.04-0.8-0.8-1.3-2.25c-0.05-0.13,0.02-0.28,0.16-0.32
								c0.13-0.05,0.28,0.02,0.32,0.16c0.26,0.76,0.59,1.49,0.79,1.78c0.11-0.46,0.17-1.63,0.16-2.64c0-0.14,0.11-0.26,0.25-0.26
								c0,0,0,0,0,0c0.14,0,0.25,0.11,0.25,0.25c0.01,1.29-0.05,2.89-0.38,3.19C198.12,134.98,198.04,135.01,197.95,135.01z"/>
						</g>
						<polygon class="st3" points="198.43,130.73 206.84,118.82 207.75,119.34 198.88,131.8 						"/>
						<g>
							<path class="st30" d="M159.92,111.2c-0.61,1.11-2,1.51-3.11,0.9c-1.11-0.61-1.51-2-0.9-3.11c0.61-1.11,2-1.51,3.11-0.9
								C160.12,108.7,160.53,110.09,159.92,111.2z"/>
							<path class="st30" d="M165.37,112.24c-0.61,1.11-2,1.51-3.11,0.9c-1.11-0.61-1.51-2-0.9-3.11c0.61-1.11,2-1.51,3.11-0.9
								C165.58,109.74,165.98,111.13,165.37,112.24z"/>
							<path class="st30" d="M160.27,110.27c0.26-0.17,0.64-0.1,0.82,0.15"/>
						</g>
						<polyline class="st28" points="166.81,127.37 158.9,151.01 155.93,169.24 						"/>
						<polyline class="st28" points="157.9,147.26 156.93,150.73 154.26,166.81 						"/>
						<line class="st28" x1="147.2" y1="125.94" x2="155.36" y2="142.46"/>
					</g>
				</g>
				<g>
					<path class="st3" d="M171.58,196.87c-0.84,0-1.52,0.68-1.52,1.52v7c0,0.84,0.68,1.52,1.52,1.52c0.84,0,1.52-0.68,1.52-1.52v-7
						C173.1,197.55,172.42,196.87,171.58,196.87z"/>
					<path class="st3" d="M176.84,196.87c-0.84,0-1.52,0.68-1.52,1.52v7c0,0.84,0.68,1.52,1.52,1.52c0.84,0,1.52-0.68,1.52-1.52v-7
						C178.36,197.55,177.68,196.87,176.84,196.87z"/>
					<path class="st3" d="M150.23,198.62c-0.29-0.12-0.62-0.05-0.84,0.17l-2.31,2.31v-1.76c0-0.31-0.19-0.59-0.48-0.71
						c-0.29-0.12-0.62-0.05-0.84,0.17l-2.55,2.55c-0.3,0.3-0.3,0.79,0,1.09l2.55,2.55c0.15,0.15,0.35,0.23,0.55,0.23
						c0.1,0,0.2-0.02,0.3-0.06c0.29-0.12,0.48-0.4,0.48-0.71v-1.76l2.31,2.31c0.15,0.15,0.35,0.23,0.55,0.23
						c0.1,0,0.2-0.02,0.3-0.06c0.29-0.12,0.48-0.4,0.48-0.71v-5.1C150.71,199.02,150.52,198.74,150.23,198.62z"/>
					<path class="st3" d="M205.2,201.34l-2.55-2.55c-0.22-0.22-0.55-0.29-0.84-0.17c-0.29,0.12-0.48,0.4-0.48,0.71v1.76l-2.31-2.31
						c-0.22-0.22-0.55-0.29-0.84-0.17c-0.29,0.12-0.48,0.4-0.48,0.71v5.1c0,0.31,0.19,0.59,0.48,0.71c0.1,0.04,0.2,0.06,0.3,0.06
						c0.2,0,0.4-0.08,0.55-0.23l2.31-2.31v1.76c0,0.31,0.19,0.59,0.48,0.71c0.1,0.04,0.2,0.06,0.3,0.06c0.2,0,0.4-0.08,0.55-0.23
						l2.55-2.55C205.5,202.13,205.5,201.64,205.2,201.34z"/>
				</g>
			</g>
			<g>
				<g>
					<g>
						<defs>
							<path id="SVGID_8_" d="M411.24,213.36h-57.58c-0.85,0-1.54-0.69-1.54-1.54v-80.05c0-0.85,0.69-1.54,1.54-1.54h57.58
								c0.85,0,1.54,0.69,1.54,1.54v80.05C412.78,212.66,412.09,213.36,411.24,213.36z"/>
						</defs>
						<clipPath id="SVGID_9_">
							<use xlink:href="#SVGID_8_"  style="overflow:visible;"/>
						</clipPath>
						<rect x="352.12" y="130.22" class="st31" width="60.67" height="5.57"/>
						<rect x="352.12" y="135.79" class="st31" width="60.67" height="2.72"/>
						<rect x="352.12" y="138.51" class="st32" width="60.67" height="2.72"/>
						<rect x="352.12" y="141.22" class="st33" width="60.67" height="2.72"/>
						<rect x="352.12" y="143.94" class="st34" width="60.67" height="2.72"/>
						<rect x="352.12" y="146.65" class="st35" width="60.67" height="2.72"/>
						<rect x="352.12" y="149.37" class="st36" width="60.67" height="2.72"/>
						<rect x="352.12" y="152.08" class="st37" width="60.67" height="2.72"/>
						<rect x="352.12" y="154.8" class="st38" width="60.67" height="2.72"/>
						<rect x="352.12" y="157.51" class="st39" width="60.67" height="2.72"/>
						<rect x="352.12" y="160.23" class="st40" width="60.67" height="2.72"/>
						<rect x="352.12" y="162.94" class="st41" width="60.67" height="2.72"/>
						<rect x="352.12" y="165.66" class="st42" width="60.67" height="2.72"/>
						<rect x="352.12" y="168.38" class="st43" width="60.67" height="2.72"/>
						<rect x="352.12" y="171.09" class="st44" width="60.67" height="2.72"/>
						<rect x="352.12" y="173.81" class="st45" width="60.67" height="2.72"/>
						<rect x="352.12" y="176.52" class="st46" width="60.67" height="2.72"/>
						<rect x="352.12" y="179.24" class="st47" width="60.67" height="2.72"/>
						<rect x="352.12" y="181.95" class="st48" width="60.67" height="2.72"/>
						<rect x="352.12" y="184.67" class="st49" width="60.67" height="2.72"/>
						<rect x="352.12" y="187.38" class="st50" width="60.67" height="2.72"/>
						<rect x="352.12" y="190.1" class="st51" width="60.67" height="2.72"/>
						<rect x="352.12" y="192.81" class="st52" width="60.67" height="2.72"/>
						<rect x="352.12" y="195.53" class="st53" width="60.67" height="2.72"/>
						<rect x="352.12" y="198.25" class="st53" width="60.67" height="15.11"/>
					</g>
				</g>
				<g>
					<g>
						<path class="st16" d="M393.81,140.1H370.1c-0.38,0-0.68-0.3-0.68-0.68c0-0.38,0.3-0.68,0.68-0.68h23.71
							c0.38,0,0.68,0.3,0.68,0.68C394.49,139.79,394.18,140.1,393.81,140.1z"/>
					</g>
					<g>
						<path class="st3" d="M384.05,144.84H370.1c-0.38,0-0.68-0.3-0.68-0.68s0.3-0.68,0.68-0.68h13.96c0.38,0,0.68,0.3,0.68,0.68
							S384.43,144.84,384.05,144.84z"/>
					</g>
					<g>
						<path class="st4" d="M394.95,149.59H370.1c-0.38,0-0.68-0.3-0.68-0.68s0.3-0.68,0.68-0.68h24.86c0.38,0,0.68,0.3,0.68,0.68
							S395.33,149.59,394.95,149.59z"/>
					</g>
					<g>
						<path class="st16" d="M372.96,154.34h-2.86c-0.38,0-0.68-0.3-0.68-0.68c0-0.38,0.3-0.68,0.68-0.68h2.86
							c0.38,0,0.68,0.3,0.68,0.68C373.64,154.04,373.34,154.34,372.96,154.34z"/>
					</g>
					<g>
						<path class="st1" d="M388.7,144.84h-1.74c-0.38,0-0.68-0.3-0.68-0.68s0.3-0.68,0.68-0.68h1.74c0.38,0,0.68,0.3,0.68,0.68
							S389.08,144.84,388.7,144.84z"/>
					</g>
					<g>
						<path class="st16" d="M403.13,144.84h-11.38c-0.38,0-0.68-0.3-0.68-0.68s0.3-0.68,0.68-0.68h11.38c0.38,0,0.68,0.3,0.68,0.68
							S403.5,144.84,403.13,144.84z"/>
					</g>
					<g>
						<path class="st1" d="M403.13,140.1h-6.36c-0.38,0-0.68-0.3-0.68-0.68c0-0.38,0.3-0.68,0.68-0.68h6.36
							c0.38,0,0.68,0.3,0.68,0.68C403.81,139.79,403.5,140.1,403.13,140.1z"/>
					</g>
					<g>
						<path class="st1" d="M363.3,139.91c0,1.1-0.89,1.99-1.99,1.99s-1.99-0.89-1.99-1.99s0.89-1.99,1.99-1.99
							S363.3,138.81,363.3,139.91z"/>
					</g>
					<g>
						<path class="st1" d="M378.7,154.34h-2.86c-0.38,0-0.68-0.3-0.68-0.68c0-0.38,0.3-0.68,0.68-0.68h2.86
							c0.38,0,0.68,0.3,0.68,0.68C379.38,154.04,379.08,154.34,378.7,154.34z"/>
					</g>
				</g>
				<g>
					<g>
						<path class="st16" d="M393.81,165.12H370.1c-0.38,0-0.68-0.3-0.68-0.68c0-0.38,0.3-0.68,0.68-0.68h23.71
							c0.38,0,0.68,0.3,0.68,0.68C394.49,164.82,394.18,165.12,393.81,165.12z"/>
					</g>
					<g>
						<path class="st3" d="M384.05,169.87H370.1c-0.38,0-0.68-0.3-0.68-0.68c0-0.38,0.3-0.68,0.68-0.68h13.96
							c0.38,0,0.68,0.3,0.68,0.68C384.73,169.56,384.43,169.87,384.05,169.87z"/>
					</g>
					<g>
						<path class="st4" d="M394.95,174.62H370.1c-0.38,0-0.68-0.3-0.68-0.68s0.3-0.68,0.68-0.68h24.86c0.38,0,0.68,0.3,0.68,0.68
							S395.33,174.62,394.95,174.62z"/>
					</g>
					<g>
						<path class="st16" d="M372.96,179.36h-2.86c-0.38,0-0.68-0.3-0.68-0.68c0-0.38,0.3-0.68,0.68-0.68h2.86
							c0.38,0,0.68,0.3,0.68,0.68C373.64,179.06,373.34,179.36,372.96,179.36z"/>
					</g>
					<g>
						<path class="st1" d="M388.7,169.87h-1.74c-0.38,0-0.68-0.3-0.68-0.68c0-0.38,0.3-0.68,0.68-0.68h1.74
							c0.38,0,0.68,0.3,0.68,0.68C389.38,169.56,389.08,169.87,388.7,169.87z"/>
					</g>
					<g>
						<path class="st16" d="M403.13,169.87h-11.38c-0.38,0-0.68-0.3-0.68-0.68c0-0.38,0.3-0.68,0.68-0.68h11.38
							c0.38,0,0.68,0.3,0.68,0.68C403.81,169.56,403.5,169.87,403.13,169.87z"/>
					</g>
					<g>
						<path class="st1" d="M403.13,165.12h-6.36c-0.38,0-0.68-0.3-0.68-0.68c0-0.38,0.3-0.68,0.68-0.68h6.36
							c0.38,0,0.68,0.3,0.68,0.68C403.81,164.82,403.5,165.12,403.13,165.12z"/>
					</g>
					<g>
						<path class="st1" d="M363.3,164.93c0,1.1-0.89,1.99-1.99,1.99s-1.99-0.89-1.99-1.99c0-1.1,0.89-1.99,1.99-1.99
							S363.3,163.83,363.3,164.93z"/>
					</g>
					<g>
						<path class="st1" d="M378.7,179.36h-2.86c-0.38,0-0.68-0.3-0.68-0.68c0-0.38,0.3-0.68,0.68-0.68h2.86
							c0.38,0,0.68,0.3,0.68,0.68C379.38,179.06,379.08,179.36,378.7,179.36z"/>
					</g>
				</g>
				<g>
					<g>
						<path class="st16" d="M393.81,190.14H370.1c-0.38,0-0.68-0.3-0.68-0.68c0-0.38,0.3-0.68,0.68-0.68h23.71
							c0.38,0,0.68,0.3,0.68,0.68C394.49,189.84,394.18,190.14,393.81,190.14z"/>
					</g>
					<g>
						<path class="st3" d="M384.05,194.89H370.1c-0.38,0-0.68-0.3-0.68-0.68s0.3-0.68,0.68-0.68h13.96c0.38,0,0.68,0.3,0.68,0.68
							S384.43,194.89,384.05,194.89z"/>
					</g>
					<g>
						<path class="st4" d="M394.95,199.64H370.1c-0.38,0-0.68-0.3-0.68-0.68s0.3-0.68,0.68-0.68h24.86c0.38,0,0.68,0.3,0.68,0.68
							S395.33,199.64,394.95,199.64z"/>
					</g>
					<g>
						<path class="st16" d="M372.96,204.39h-2.86c-0.38,0-0.68-0.3-0.68-0.68c0-0.38,0.3-0.68,0.68-0.68h2.86
							c0.38,0,0.68,0.3,0.68,0.68C373.64,204.08,373.34,204.39,372.96,204.39z"/>
					</g>
					<g>
						<path class="st1" d="M388.7,194.89h-1.74c-0.38,0-0.68-0.3-0.68-0.68s0.3-0.68,0.68-0.68h1.74c0.38,0,0.68,0.3,0.68,0.68
							S389.08,194.89,388.7,194.89z"/>
					</g>
					<g>
						<path class="st16" d="M403.13,194.89h-11.38c-0.38,0-0.68-0.3-0.68-0.68s0.3-0.68,0.68-0.68h11.38c0.38,0,0.68,0.3,0.68,0.68
							S403.5,194.89,403.13,194.89z"/>
					</g>
					<g>
						<path class="st1" d="M403.13,190.14h-6.36c-0.38,0-0.68-0.3-0.68-0.68c0-0.38,0.3-0.68,0.68-0.68h6.36
							c0.38,0,0.68,0.3,0.68,0.68C403.81,189.84,403.5,190.14,403.13,190.14z"/>
					</g>
					<g>
						<path class="st1" d="M363.3,189.96c0,1.1-0.89,1.99-1.99,1.99s-1.99-0.89-1.99-1.99c0-1.1,0.89-1.99,1.99-1.99
							S363.3,188.86,363.3,189.96z"/>
					</g>
					<g>
						<path class="st1" d="M378.7,204.39h-2.86c-0.38,0-0.68-0.3-0.68-0.68c0-0.38,0.3-0.68,0.68-0.68h2.86
							c0.38,0,0.68,0.3,0.68,0.68C379.38,204.08,379.08,204.39,378.7,204.39z"/>
					</g>
				</g>
			</g>
			<g>
				<path class="st22" d="M245.43,121.84c1.93,1.87,3.25,4.59,4.4,7.33c0.91,2.17,1.75,4.51,1.69,6.97
					c-0.06,2.34-0.96,4.56-2.23,6.23c-1.27,1.67-2.89,2.84-4.57,3.73c-3.14,1.66-6.84,2.36-9.84,0.33
					c-2.43-1.64-4.04-4.84-4.94-8.19c-0.56-2.09-0.89-4.3-0.79-6.51c0.13-3.04,1.2-5.88,2.99-7.88
					C235.51,120.08,241.61,118.12,245.43,121.84z"/>
				<g>
					<path class="st25" d="M240.29,142.37c1.04-0.05,1.88-0.92,1.83-1.97c-0.05-1.17,0.15-2.26,2.07-3.15
						c4.02-1.85,4.1-16.77-3.3-16.43c-7.41,0.34-6.49,10.4-6.32,13.17c0.17,2.77,2.64,3.35,3.3,4.32c0.29,0.43,0.38,1.3,0.39,2.13
						C238.28,141.55,239.19,142.43,240.29,142.37L240.29,142.37z"/>
				</g>
				<g>
					<path class="st25" d="M245.91,131.93c0.05,0.91,0.72,1.61,1.5,1.57s1.38-0.81,1.34-1.72c-0.05-0.91-0.72-1.61-1.5-1.57
						C246.46,130.25,245.86,131.02,245.91,131.93z"/>
				</g>
				<g>
					<path class="st25" d="M232.56,131.32c0.05,0.91,0.72,1.61,1.5,1.57c0.79-0.04,1.38-0.81,1.34-1.72
						c-0.05-0.91-0.72-1.61-1.5-1.57C233.12,129.65,232.52,130.41,232.56,131.32z"/>
				</g>
				<g>
					<g>
						<path class="st22" d="M241.73,130.12c0.4,0.01,0.73,0.34,0.72,0.75c-0.01,0.4-0.34,0.73-0.75,0.72
							c-0.4-0.01-0.73-0.34-0.72-0.75C240.99,130.44,241.33,130.11,241.73,130.12z M236.53,130.75c-0.01,0.4,0.31,0.74,0.72,0.75
							c0.4,0.01,0.74-0.31,0.75-0.72c0.01-0.4-0.31-0.74-0.72-0.75C236.87,130.02,236.54,130.34,236.53,130.75z"/>
					</g>
				</g>
				<g>
					<path class="st22" d="M243.28,129.17c-0.07,0-0.13-0.03-0.18-0.08c-0.42-0.43-1.11-0.58-1.68-0.38
						c-0.13,0.04-0.28-0.02-0.33-0.16c-0.05-0.13,0.02-0.28,0.16-0.33c0.76-0.27,1.65-0.07,2.21,0.51c0.1,0.1,0.1,0.26,0,0.36
						C243.41,129.15,243.34,129.17,243.28,129.17z"/>
				</g>
				<g>
					<path class="st22" d="M236.89,128.93c-0.09,0-0.17-0.04-0.22-0.12c-0.07-0.12-0.04-0.28,0.08-0.35
						c0.69-0.43,1.61-0.47,2.34-0.1c0.13,0.06,0.18,0.22,0.11,0.34c-0.06,0.13-0.22,0.18-0.34,0.11c-0.57-0.29-1.3-0.26-1.84,0.08
						C236.98,128.92,236.94,128.93,236.89,128.93z"/>
				</g>
				<g>
					<path class="st29" d="M239.92,133.55c-0.05,0-0.1-0.01-0.15-0.02c-0.21-0.06-0.39-0.21-0.46-0.41c-0.12-0.3-0.04-0.6,0.02-0.83
						l0.47-1.87c0.03-0.14,0.17-0.22,0.31-0.18c0.14,0.03,0.22,0.17,0.18,0.31l-0.47,1.87c-0.05,0.2-0.09,0.38-0.04,0.52
						c0.02,0.05,0.07,0.09,0.12,0.11c0.11-0.09,0.29-0.07,0.37,0.04c0.09,0.11,0.08,0.27-0.03,0.36
						C240.15,133.51,240.03,133.55,239.92,133.55z"/>
				</g>
				<g>
					<path class="st29" d="M239.89,134.91c-0.72,0-1.43-0.24-2-0.68c-0.11-0.09-0.13-0.25-0.04-0.36c0.09-0.11,0.25-0.13,0.36-0.04
						c0.53,0.41,1.22,0.62,1.89,0.57c0.67-0.05,1.32-0.36,1.78-0.85c0.1-0.1,0.26-0.11,0.36-0.01c0.1,0.1,0.11,0.26,0.01,0.36
						c-0.54,0.58-1.31,0.95-2.11,1.01C240.05,134.91,239.97,134.91,239.89,134.91z"/>
				</g>
				<g>
					<path class="st29" d="M234.49,132.09c-0.13,0-0.25-0.11-0.25-0.24l-0.06-1.24c-0.01-0.14,0.1-0.26,0.24-0.27
						c0.14-0.01,0.26,0.1,0.27,0.24l0.06,1.24c0.01,0.14-0.1,0.26-0.24,0.27C234.5,132.09,234.49,132.09,234.49,132.09z"/>
				</g>
				<g>
					<path class="st29" d="M246.62,132.73c-0.03,0-0.07-0.01-0.1-0.02c-0.13-0.05-0.19-0.2-0.14-0.33l0.37-0.91
						c0.05-0.13,0.2-0.19,0.33-0.14c0.13,0.05,0.19,0.2,0.14,0.33l-0.37,0.91C246.82,132.67,246.72,132.73,246.62,132.73z"/>
				</g>
				<g>
					<path class="st19" d="M229.18,144.8c-1.93,1.03-5.34,19.5-5.34,19.5l-6.33-0.61c0,0,1.44,3.42,6.83,5.39
						c6.33,2.32,8.38-16.11,8.38-16.11L229.18,144.8z"/>
					<g>
						<path class="st19" d="M233.87,139.33l0.64,3.17c0,0,6.16,2.53,10.44-0.15l0.37-3.03H233.87z"/>
					</g>
					<g>
						<path class="st22" d="M241.44,180.68c0.08-0.76-0.51-1.41-1.27-1.41c-0.53,0-1.01,0.33-1.19,0.83l-28.13,74.28l-6.11-0.1
							l25.95-82.88c8.9-2.94,18.85,0.22,18.85,0.22s3.08,9.87,0.95,23.84c-2.12,13.97-11.67,59.37-11.67,59.37l-5.29-0.09
							L241.44,180.68z"/>
						<polygon class="st19" points="209.68,257.46 199.14,257.46 204.73,254.28 210.84,254.38 						"/>
						<polygon class="st19" points="233.24,257.46 233.53,254.74 238.82,254.83 242.33,257.46 						"/>
					</g>
					<path class="st19" d="M250.25,143.94c1.52,1.21,14.42,17.27,14.26,18.58c-0.16,1.31-11.45,12.97-11.45,12.97l-2.25-4.17
						l6.9-8.42l-9.28-9.58L250.25,143.94z"/>
					<path class="st19" d="M244.94,142.35c0,0,4.03,0.79,5.31,1.58c0.49,0.31-1.08,19.78-1.08,19.78l3.35,13.49
						c0,0-15.99,2.95-25.28-1.44l4.86-11.96c0,0-3.02-18.69-2.92-19.01s5.32-2.3,5.32-2.3L244.94,142.35z"/>
					<path class="st54" d="M229.85,149.07c-0.5,1.3-0.59,2.76-0.26,4.11c0.25,1.03,0.77,2.03,1.6,2.69c0.09,0.78,0.1,1.67,0.19,2.46
						"/>
					<path class="st54" d="M250.31,148.56c0.9,1.58,0.74,3.7-0.37,5.14"/>
					<path class="st54" d="M243.77,142.26c-2.51,1.08-5.4,1.25-8.02,0.48"/>
				</g>
				<g>
					<g>
						<path class="st22" d="M246.62,169.25h-13.2v1.54h12.5c0.39,0,0.7-0.31,0.7-0.7V169.25z"/>
						<path class="st22" d="M211.23,170.78h23.24c0.39,0,0.66-0.31,0.62-0.7l-1.96-16.54c-0.09-0.77-0.79-1.4-1.56-1.4h-21.84
							c-0.77,0-1.32,0.63-1.23,1.4l1.96,16.54C210.5,170.47,210.85,170.78,211.23,170.78z"/>
						<g>
							<path class="st55" d="M213.69,169.48h19.74c0.13,0,0.23-0.1,0.23-0.23s-0.1-0.23-0.23-0.23h-19.74
								c-0.13,0-0.23,0.1-0.23,0.23S213.56,169.48,213.69,169.48z"/>
						</g>
						<g>
							<circle class="st55" cx="220.55" cy="160.56" r="1.39"/>
						</g>
					</g>
					<g>
						<path class="st25" d="M209.5,163.27c0,0-2.72,1.55-2.57,2.42s1.02,1.27,1.29,1.46c0.26,0.19,0.03,1.36,0.87,1.98
							c0.83,0.62,0.92,1.65,1.69,2.04c0.77,0.39,1.82-0.64,2.08-0.91c0.26-0.27-1.04-1.71-1.04-1.71s0.56-0.75,0.43-1.05
							c-0.13-0.29-1.13-1.63-1.13-1.63s0.23-1.22,0.13-1.46c-0.1-0.23-0.55-0.68-0.55-0.68l-0.69,0.37L209.5,163.27z"/>
					</g>
				</g>
				<g>
					<path class="st25" d="M248.85,171.43c0,0,2.81-1.08,3.36-0.44c0.55,0.63,0.32,1.53,0.3,1.85c-0.02,0.31,0.99,0.85,0.95,1.85
						c-0.04,1,0.67,1.69,0.49,2.5c-0.18,0.81-1.58,0.96-1.94,0.99c-0.36,0.03-0.63-1.81-0.63-1.81s-0.9-0.04-1.04-0.32
						c-0.14-0.27-0.52-1.83-0.52-1.83s-1.05-0.57-1.16-0.79c-0.11-0.22-0.17-0.83-0.17-0.83l0.69-0.28L248.85,171.43z"/>
				</g>
				<path class="st22" d="M247.43,128.83c0.27,0.54,0.14,1.25-0.29,1.66c-0.29,0.28-0.69,0.42-1,0.68c-0.41,0.34-0.63,0.86-0.7,1.39
					c-0.07,0.52,0,1.06,0.09,1.58c-0.79-0.66-1.03-1.76-0.84-2.77c0.19-1.01,0.72-1.91,1.25-2.79c-1.41-0.14-2.65-1.19-2.99-2.56
					c-2.75,1.27-5.64,1.82-8.66,1.91c0.36-1.58,0.79-3.25,1.6-4.66c0.8-1.4,2.12-2.61,3.72-2.87c1.37-0.23,2.77,0.26,4,0.91
					c1.41,0.75,2.73,1.76,3.52,3.15C247.91,125.84,248.25,127.47,247.43,128.83z"/>
			</g>
		</g>
	</g>
</g>
</svg>
